<?xml version="1.0" encoding="utf-8"?>
<!-- Generator: Adobe Illustrator 27.9.0, SVG Export Plug-In . SVG Version: 6.00 Build 0)  -->
<svg version="1.1" id="레이어_1" xmlns="http://www.w3.org/2000/svg" xmlns:xlink="http://www.w3.org/1999/xlink" x="0px"
	 y="0px" viewBox="0 0 1050 282.51" style="enable-background:new 0 0 1050 282.51;" xml:space="preserve">
<g>
	<g>
		<path d="M0,0c7.98,0.11,15.96,0.32,23.94,0.25c2.36-0.02,3.6,0.69,4.78,2.75C39.37,21.62,50.15,40.15,60.9,58.71
			c0.58,1.01,1.2,2,2.44,2.92c0-20.33,0-40.65,0-61.12c9.41,0,18.33,0,27.31,0c0,39.74,0,79.27,0,118.99c-8.99,0-17.81,0-26.41,0
			C52.27,98.79,40.33,78.14,28.4,57.49c-0.25,0.05-0.5,0.09-0.75,0.14c0,20.58,0,41.17,0,62.15c-9.54,0-18.59,0-27.64,0
			C0,79.86,0,39.93,0,0z"/>
		<path d="M141.91,73.67c0,6.4,0,12.2,0,18.37c22.27,0,44.37,0,66.66,0c0,9.29,0,18.2,0,27.37c-31.31,0-62.6,0-94.14,0
			c0-39.46,0-79,0-118.82c31.27,0,62.63,0,94.17,0c0,8.93,0,17.74,0,26.95c-22.09,0-44.18,0-66.56,0c0,6.34,0,12.29,0,18.67
			c22.13,0,44.22,0,66.52,0c0,9.3,0,18.19,0,27.46C186.34,73.67,164.24,73.67,141.91,73.67z"/>
		<path d="M299.69,76.11c8.38,14.47,16.62,28.71,25.23,43.57c-3.67,0-6.74,0-9.8,0c-6.38,0-12.76-0.09-19.13,0.05
			c-2.13,0.05-3.25-0.67-4.3-2.52c-6.72-11.8-13.63-23.5-20.36-35.3c-0.99-1.74-2.07-2.41-4.06-2.32
			c-3.54,0.16-7.09,0.04-10.94,0.04c0,13.34,0,26.45,0,39.8c-9.19,0-18.09,0-27.23,0c0-39.59,0-79.12,0-119.12c1.27,0,2.52,0,3.78,0
			c16.43,0,32.86-0.01,49.29,0c18.94,0.01,34.67,11.88,39.3,29.63c4.65,17.79-3.24,35.72-19.8,45.03
			C301.11,75.29,300.55,75.61,299.69,76.11z M256.37,52.34c6.53,0,12.68,0.04,18.83-0.02c3.34-0.03,6.73,0.09,10.01-0.43
			c6.25-1,10.39-6.51,10.02-12.74c-0.36-6.08-5.36-11.12-11.63-11.33c-6.04-0.2-12.1-0.07-18.15-0.09c-2.99-0.01-5.97,0-9.07,0
			C256.37,36.07,256.37,44.01,256.37,52.34z"/>
		<path d="M337.17,118.86c0-39.4,0-78.71,0-118.54c5.02,0,9.87-0.02,14.71,0c10.26,0.05,20.55-0.38,30.77,0.3
			c30.52,2.01,53.69,25.75,55.53,56.37c1.89,31.43-22.36,59.79-53.79,62.13c-12.57,0.94-25.25,0.47-37.89,0.51
			C343.51,119.65,340.52,119.16,337.17,118.86z M364.62,92.05c4.89,0,9.61,0.1,14.32-0.02c12.93-0.32,22.55-6.3,28.32-17.72
			c5.79-11.46,4.76-22.82-2.71-33.26c-10.02-14.01-24.73-14.23-39.93-13.01C364.62,49.35,364.62,70.53,364.62,92.05z"/>
	</g>
	<g>
		<path d="M154.38,282.51c-3.43-0.85-6.89-1.57-10.27-2.58c-26.38-7.89-44.32-34.01-42.12-61.23c2.29-28.35,23.55-51.07,51.29-54.81
			c25.14-3.39,49.16,8.72,61.05,30.79c11.74,21.79,8.81,48.44-7.56,67.32c-9.39,10.83-21.29,17.36-35.43,19.82
			c-0.7,0.12-1.35,0.45-2.03,0.68C164.33,282.51,159.36,282.51,154.38,282.51z M193.95,222.85c-0.03-17.61-14.57-32.15-32.19-32.18
			c-17.81-0.03-32.37,14.51-32.34,32.32c0.02,17.63,14.51,32.14,32.16,32.21C179.27,255.27,193.98,240.57,193.95,222.85z"/>
		<path d="M0,216.46c1.45-5.25,2.42-10.7,4.44-15.73c15.44-38.48,65.34-49.22,95.42-20.66c0.31,0.29,0.56,0.64,0.65,0.74
			c-6.45,6.4-12.85,12.74-19.32,19.16c-17.83-11.8-34.04-11.2-45.66,1.98c-10.6,12.03-10.71,29.81-0.26,41.69
			c11.83,13.44,27.83,14.13,46.11,2.12c6.35,6.35,12.67,12.66,19.35,19.33c-2.37,1.93-4.88,4.23-7.64,6.17
			C57.07,296.55,6.7,274.7,0.6,231.18C0.51,230.58,0.2,230,0,229.41C0,225.09,0,220.78,0,216.46z"/>
		<path d="M543.25,281.33c-31.38,0-62.68,0-94.23,0c0-38.92,0-77.78,0-116.82c31.39,0,62.69,0,94.23,0c0,8.81,0,17.49,0,26.53
			c-22.14,0-44.34,0-66.77,0c0,6.22,0,12.08,0,18.36c22.23,0,44.42,0,66.8,0c0,9.1,0,17.79,0,26.88c-22.2,0-44.39,0-66.82,0
			c0,6.17,0,11.94,0,18.12c22.16,0,44.36,0,66.78,0C543.25,263.57,543.25,272.35,543.25,281.33z"/>
		<path d="M431.33,281.35c-8.97,0-17.81,0-26.42,0c-12.01-20.41-23.99-40.76-35.97-61.12c-0.22,0.05-0.43,0.11-0.65,0.16
			c0,20.19,0,40.38,0,60.85c-9.34,0-18.33,0-27.47,0c0-38.91,0-77.7,0-116.92c1.94,0,3.75,0,5.55,0c5.94,0,11.89,0.16,17.83-0.07
			c2.79-0.11,4.21,0.96,5.55,3.26c10.58,18.16,21.28,36.26,31.94,54.37c0.59,1,1.23,1.98,2.28,3.67c0-20.73,0-40.69,0-60.94
			c9.29,0,18.27,0,27.37,0C431.33,203.55,431.33,242.35,431.33,281.35z"/>
		<path d="M232.91,164.33c6.81,0,13.52,0.37,20.16-0.12c5.09-0.38,7.74,1.43,10.24,5.84c9.87,17.45,20.22,34.63,30.4,51.91
			c0.53,0.89,1.1,1.76,2.21,3.51c0-20.84,0-40.69,0-60.84c9.37,0,18.36,0,27.51,0c0,38.9,0,77.69,0,116.91
			c-5.28,0-10.44,0.02-15.6-0.01c-3.67-0.02-7.99,1.1-10.82-0.47c-2.65-1.46-3.7-5.79-5.49-8.84
			c-9.78-16.63-19.58-33.26-29.38-49.88c-0.44-0.74-0.9-1.46-1.88-3.06c0,21.24,0,41.58,0,62.05c-9.38,0-18.3,0-27.34,0
			C232.91,242.33,232.91,203.52,232.91,164.33z"/>
		<path d="M959.51,164.33c7.01,0,13.92,0.34,20.79-0.12c4.62-0.31,7.05,1.3,9.31,5.26c10.11,17.7,20.57,35.19,30.91,52.75
			c0.53,0.9,1.14,1.76,2.21,3.41c0-20.86,0-40.83,0-61.05c9.25,0,18.16,0,27.26,0c0,38.84,0,77.64,0,116.7c-8.87,0-17.78,0-26.49,0
			c-12.01-20.4-24.01-40.79-36-61.17c-0.24,0.06-0.48,0.13-0.72,0.19c0,20.3,0,40.59,0,61.05c-9.31,0-18.23,0-27.28,0
			C959.51,242.35,959.51,203.53,959.51,164.33z"/>
		<path d="M886,281.54c-32.31,0.15-59.13-26-59.84-57.18c-0.7-31.04,24.48-59.72,59.22-60.01c33.29-0.28,60.37,26.07,60.37,58.59
			C945.76,255.17,919.02,281.39,886,281.54z M853.65,223.01c0.03,17.32,14.6,31.55,32.3,31.54c17.75-0.01,32.21-14.18,32.23-31.58
			c0.02-17.37-14.46-31.7-32.1-31.77C868.33,191.14,853.63,205.56,853.65,223.01z"/>
		<path d="M657.65,181.08c-6.33,6.31-12.65,12.62-19.17,19.12c-7.78-6.97-17.12-10.29-27.97-8.3c-7.62,1.4-13.88,5.21-18.79,11.19
			c-10.01,12.19-9.26,30.05,1.74,41.67c9.55,10.08,28.66,15.36,45.04,0.98c6.41,6.36,12.81,12.72,19.22,19.07
			c-19.44,20.73-57.74,24.73-82.93,0.2c-24.48-23.84-23.32-63.93,2.72-86.62C603.36,155.86,640.21,161.81,657.65,181.08z"/>
		<path d="M702.33,281.63c0-30.23,0-60.27,0-90.69c-11.27,0-22.24,0-33.38,0c0-9.15,0-17.93,0-26.87c31.45,0,62.73,0,94.22,0
			c0,8.84,0,17.53,0,26.7c-10.99,0-22.04,0-33.33,0c0,30.53,0,60.58,0,90.87C720.69,281.63,711.79,281.63,702.33,281.63z"/>
		<path d="M808.29,281.37c-9.09,0-17.92,0-26.96,0c0-38.94,0-77.71,0-116.76c8.87,0,17.77,0,26.96,0
			C808.29,203.39,808.29,242.24,808.29,281.37z"/>
	</g>
</g>
</svg>
